/* XPM */
static char * open_xpm[] = {
"20 20 4 1",
" 	c None",
".	c #FFFFFFFF0000",
"X	c #FFFFA5A50000",
"o	c #000064640000",
"                    ",
"                    ",
"                    ",
"                    ",
"  .....             ",
"  .XXXX             ",
"  .XXXX.......   .. ",
"  .XXXXXXXXXXXoooXX ",
"  .XXXXXXXXXXXoooXX ",
"  .XXXXXXXXXXXoooXX ",
"  .XXXXXXXXXXXoooXX ",
"  .XXXXXXXXXXXoooXX ",
"  .XXXXXXXXXXXoooXX ",
"  .XXXXXXXXXXXooXXX ",
"  .XXXXXXXXXXXooXXX ",
"  .XXXXXXXXXXXXXXX  ",
"  .XXXXXXXXXXXXXX   ",
"                    ",
"                    ",
"                    "};
