/* XPM */
static char * save_xpm[] = {
"20 20 4 1",
" 	c None",
".	c #696969696969",
"X	c #FFFFFFFFFFFF",
"o	c #A9A9A9A9A9A9",
"                    ",
"                    ",
"                    ",
"                    ",
"    ............    ",
"    .XXXXXXXXXX.    ",
"    .XXXXXXXXXX.    ",
"    ............    ",
"    ..XXXXXXXXX.    ",
"    ..XXXXXXXXX.    ",
"    ..XXXo.oXXX.    ",
"    .XXXX...XXX.    ",
"    .XXXXo.oXXX.    ",
"    .XXXXXXXXXX.    ",
"    .XXXXXXXXXX.    ",
"    .XXXXXXXXXX.    ",
"    ............    ",
"                    ",
"                    ",
"                    "};
