/* XPM */
static char * exclm_xpm[] = {
"100 100 3 1",
" 	c None",
".	c black",
"X	c red",
"                                              .                                                     ",
"                                              .                                                     ",
"                                              .                                                     ",
"                                              .                                                     ",
"                             XXXXXXXXXXXXXXXXXXXXXXXXXXXXXXXXXXX                                    ",
"                             XXXXXXXXXXXXXXXXXXXXXXXXXXXXXXXXXXX                                    ",
"                             XXXXXXXXXXXXXXXXXXXXXXXXXXXXXXXXXXX                                    ",
"                             XXXXXXXXXXXXXXXXXXXXXXXXXXXXXXXXXXX                                    ",
"                              XXXXXXXXXXXXXXXXXXXXXXXXXXXXXXXXX                                     ",
"                              XXXXXXXXXXXXXXXXXXXXXXXXXXXXXXXXX                                     ",
"                              XXXXXXXXXXXXXXXXXXXXXXXXXXXXXXXXX                                     ",
"                              XXXXXXXXXXXXXXXXXXXXXXXXXXXXXXXXX                                     ",
"                              XXXXXXXXXXXXXXXXXXXXXXXXXXXXXXXXX                                     ",
"                              XXXXXXXXXXXXXXXXXXXXXXXXXXXXXXXXX                                     ",
"                              XXXXXXXXXXXXXXXXXXXXXXXXXXXXXXXXX                                     ",
"                               XXXXXXXXXXXXXXXXXXXXXXXXXXXXXXX                                      ",
"                               XXXXXXXXXXXXXXXXXXXXXXXXXXXXXXX                                      ",
"                               XXXXXXXXXXXXXXXXXXXXXXXXXXXXXXX                                      ",
"                               XXXXXXXXXXXXXXXXXXXXXXXXXXXXXXX                                      ",
"                               XXXXXXXXXXXXXXXXXXXXXXXXXXXXXXX                                      ",
"                               XXXXXXXXXXXXXXXXXXXXXXXXXXXXXXX                                      ",
"                               XXXXXXXXXXXXXXXXXXXXXXXXXXXXXXX                                      ",
"                                XXXXXXXXXXXXXXXXXXXXXXXXXXXXX                                       ",
"                                XXXXXXXXXXXXXXXXXXXXXXXXXXXXX                                       ",
"                                XXXXXXXXXXXXXXXXXXXXXXXXXXXXX                                       ",
"                                XXXXXXXXXXXXXXXXXXXXXXXXXXXXX                                       ",
"                                XXXXXXXXXXXXXXXXXXXXXXXXXXXXX                                       ",
"                                XXXXXXXXXXXXXXXXXXXXXXXXXXXXX                                       ",
"                                XXXXXXXXXXXXXXXXXXXXXXXXXXXXX                                       ",
"                                 XXXXXXXXXXXXXXXXXXXXXXXXXXX                                        ",
"                                 XXXXXXXXXXXXXXXXXXXXXXXXXXX                                        ",
"                                 XXXXXXXXXXXXXXXXXXXXXXXXXXX                                        ",
"                                 XXXXXXXXXXXXXXXXXXXXXXXXXXX                                        ",
"                                 XXXXXXXXXXXXXXXXXXXXXXXXXXX                                        ",
"                                 XXXXXXXXXXXXXXXXXXXXXXXXXXX                                        ",
"                                 XXXXXXXXXXXXXXXXXXXXXXXXXXX                                        ",
"                                  XXXXXXXXXXXXXXXXXXXXXXXXX                                         ",
"                                  XXXXXXXXXXXXXXXXXXXXXXXXX                                         ",
"                                  XXXXXXXXXXXXXXXXXXXXXXXXX                                         ",
"                                  XXXXXXXXXXXXXXXXXXXXXXXXX                                         ",
"                                  XXXXXXXXXXXXXXXXXXXXXXXXX                                         ",
"                                  XXXXXXXXXXXXXXXXXXXXXXXXX                                         ",
"                                  XXXXXXXXXXXXXXXXXXXXXXXXX                                         ",
"                                   XXXXXXXXXXXXXXXXXXXXXXX                                          ",
"                                   XXXXXXXXXXXXXXXXXXXXXXX                                          ",
"                                   XXXXXXXXXXXXXXXXXXXXXXX                                          ",
"                                   XXXXXXXXXXXXXXXXXXXXXXX                                          ",
"                                   XXXXXXXXXXXXXXXXXXXXXXX                                          ",
"                                   XXXXXXXXXXXXXXXXXXXXXXX                                          ",
"                                   XXXXXXXXXXXXXXXXXXXXXXX                                          ",
"                                    XXXXXXXXXXXXXXXXXXXXX                                           ",
"                                    XXXXXXXXXXXXXXXXXXXXX                                           ",
"                                    XXXXXXXXXXXXXXXXXXXXX                                           ",
"                                    XXXXXXXXXXXXXXXXXXXXX                                           ",
"                                    XXXXXXXXXXXXXXXXXXXXX                                           ",
"                                    XXXXXXXXXXXXXXXXXXXXX                                           ",
"                                    XXXXXXXXXXXXXXXXXXXXX                                           ",
"                                     XXXXXXXXXXXXXXXXXXX                                            ",
"                                     XXXXXXXXXXXXXXXXXXX                                            ",
"                                     XXXXXXXXXXXXXXXXXXX                                            ",
"                                     XXXXXXXXXXXXXXXXXXX                                            ",
"                                     XXXXXXXXXXXXXXXXXXX                                            ",
"                                     XXXXXXXXXXXXXXXXXXX                                            ",
"                                     XXXXXXXXXXXXXXXXXXX                                            ",
"                                      XXXXXXXXXXXXXXXXX                                             ",
"                                      XXXXXXXXXXXXXXXXX                                             ",
"                                      XXXXXXXXXXXXXXXXX                                             ",
"                                      XXXXXXXXXXXXXXXXX                                             ",
"                                      XXXXXXXXXXXXXXXXX                                             ",
"                                      XXXXXXXXXXXXXXXXX                                             ",
"                                      XXXXXXXXXXXXXXXXX                                             ",
"                                       XXXXXXXXXXXXXXX                                              ",
"                                       XXXXXXXXXXXXXXX                                              ",
"                                       XXXXXXXXXXXXXXX                                              ",
"                                       XXXXXXXXXXXXXXX                                              ",
"                                       XXXXXXXXXXXXXXX                                              ",
"                                       XXXXXXXXXXXXXXX                                              ",
"                                       XXXXXXXXXXXXXXX                                              ",
"                                        XXXXXXXXXXXXX                                               ",
"                                        XXXXXXXXXXXXX                                               ",
"                                        XXXXXXXXXXXXX                                               ",
"                                        XXXXXXXXXXXXX                                               ",
"                                              .                                                     ",
"                                              .                                                     ",
"                                              .                                                     ",
"                                        XXXXXXXXXXXXX                                               ",
"                                        XXXXXXXXXXXXX                                               ",
"                                        XXXXXXXXXXXXX                                               ",
"                                        XXXXXXXXXXXXX                                               ",
"                                        XXXXXXXXXXXXX                                               ",
"                                        XXXXXXXXXXXXX                                               ",
"                                        XXXXXXXXXXXXX                                               ",
"                                        XXXXXXXXXXXXX                                               ",
"                                        XXXXXXXXXXXXX                                               ",
"                                        XXXXXXXXXXXXX                                               ",
"                                        XXXXXXXXXXXXX                                               ",
"                                        XXXXXXXXXXXXX                                               ",
"                                        XXXXXXXXXXXXX                                               ",
"                                              .                                                     ",
"                                              .                                                     "};
