/* XPM */
static char * line_xpm[] = {
"20 20 3 1",
" 	c #FFFFFFFFFFFF",
".	c #000000000000",
"X	c #BEFBBEFBBEFB",
"                    ",
"                .X. ",
"                X.X ",
"               X.X. ",
"              X.X   ",
"             X.X    ",
"            X.X     ",
"           X.X      ",
"          X.X       ",
"         X.X        ",
"        X.X         ",
"       X.X          ",
"      X.X           ",
"     X.X            ",
"    X.X             ",
"   X.X              ",
" .X.X               ",
" X.X                ",
" .X.                ",
"                    "};
