/* XPM */
static char * test_blk_xpm[] = {
"20 20 6 1",
" 	c None",
".	c white",
"X	c blue",
"o	c red",
"O	c pink",
"+	c seashell4",
"....X...............",
".....X............o.",
"OOOOOXO..........o..",
"OOOOOOX.........o...",
"OOOOOOX........o....",
"OOOOOOOX+++++.o.....",
"OOOOOOO+X++++o......",
"OOOOOOO+X+++o       ",
"OOOOOOO++Xoo+       ",
"OOOOOOO++X+++       ",
"OOOOOOO+o+X++       ",
"OOOOOOOo+++X+       ",
"OOOOOOo++++X+       ",
"OOOOOoO+++++X       ",
"OOOOoOO......X......",
"OOOoOOO......X......",
"OOoOOOO.......X.....",
"OOOOOOO.......X.....",
"OOOOOOO........X....",
"OOOOOOO............."};
