/* XPM */
static char * xpm1_xpm[] = {
"20 20 2 1",
" 	c #FFFFFFFFFFFF",
".	c #FFFF00000000",
"     . .            ",
"     .     .        ",
"      .  .  ..  ..  ",
"        .  ....  .  ",
"  ..  . . ..  ..    ",
"... ...........   . ",
" . .. .. .... ..    ",
" .. . ...... ..   . ",
".  .... ......... . ",
"      .... .....    ",
" . ....  ... ...  . ",
"    ........... .   ",
"  .. .... ... . . . ",
"   ...   ......     ",
"    .. . .. . .. .  ",
"    .... ..... . .  ",
"    ............    ",
"    .     ... ..    ",
"     . . . ...   .  ",
"                    "};
