/* XPM */
static char * xpm2_xpm[] = {
"20 20 5 1",
" 	c #FFFFFFFFFFFF",
".	c #00000000FFFF",
"X	c #FFFF00000000",
"o	c #000000000000",
"O	c #0000FFFF0000",
"                    ",
"                    ",
"                    ",
"    .............   ",
"    .............   ",
"    .............   ",
"    .............   ",
"    .............   ",
"                    ",
"                    ",
"                    ",
"   XXXX   ooooooooo ",
"   XXXX   oOOOOOOOo ",
"   XXXX   oOOOOOOOo ",
"   XXXX   oOOOOOOOo ",
"   XXXX   ooooooooo ",
"   XXXX             ",
"   XXXX             ",
"   XXXX             ",
"   XXXX             "};
