/* XPM */
static char * xpm3_xpm[] = {
"20 20 4 1",
" 	c #FFFFFFFFFFFF",
".	c #000064640000",
"X	c #FFFF00000000",
"o	c #0000FFFF0000",
"                    ",
"                    ",
"       .            ",
"        .           ",
"         .     X    ",
"   o      .   X     ",
"    o      . X      ",
"     o      X       ",
"      o    X .      ",
"       o  X   .     ",
"        oX     .    ",
"        Xo      .   ",
"       X  o      .  ",
"      X    o        ",
"     X      o       ",
"             o      ",
"              o     ",
"                    ",
"                    ",
"                    "};
