/* XPM */
static char * xpm4_xpm[] = {
"20 20 2 1",
" 	c #0000FFFFFFFF",
".	c #FFFFFFFFFFFF",
"                    ",
"                    ",
"                    ",
"                    ",
"                    ",
"                    ",
"                    ",
"                    ",
"                    ",
"                    ",
"                    ",
"....................",
"....................",
"....................",
"....................",
"....................",
"....................",
"....................",
"....................",
"...................."};
